# CUADC 天井五边形竖壁（生成器：tools/make_world.py well_wall_obj()）
# 内轮廓 = 靶板轮廓；外轮廓 = 内轮廓外扩 5mm；高 400mm；方形部分中心在原点、顶角指向 +x
o pentagon_well_wall
v -0.505 -0.505 0
v 0.501 -0.505 0
v 1.376 0 0
v 0.501 0.505 0
v -0.505 0.505 0
v -0.505 -0.505 0.4
v 0.501 -0.505 0.4
v 1.376 0 0.4
v 0.501 0.505 0.4
v -0.505 0.505 0.4
v -0.5 -0.5 0
v 0.5 -0.5 0
v 1.366 0 0
v 0.5 0.5 0
v -0.5 0.5 0
v -0.5 -0.5 0.4
v 0.5 -0.5 0.4
v 1.366 0 0.4
v 0.5 0.5 0.4
v -0.5 0.5 0.4
vn 0 -1 0
f 1//1 2//1 7//1 6//1
vn 0 1 0
f 11//2 16//2 17//2 12//2
vn 0 0 1
f 6//3 7//3 17//3 16//3
vn 0 0 -1
f 1//4 11//4 12//4 2//4
vn 0.5 -0.866 0
f 2//5 3//5 8//5 7//5
vn -0.5 0.866 0
f 12//6 17//6 18//6 13//6
vn 0 0 1
f 7//7 8//7 18//7 17//7
vn 0 0 -1
f 2//8 12//8 13//8 3//8
vn 0.5 0.866 0
f 3//9 4//9 9//9 8//9
vn -0.5 -0.866 0
f 13//10 18//10 19//10 14//10
vn 0 0 1
f 8//11 9//11 19//11 18//11
vn 0 0 -1
f 3//12 13//12 14//12 4//12
vn 0 1 0
f 4//13 5//13 10//13 9//13
vn 0 -1 0
f 14//14 19//14 20//14 15//14
vn 0 0 1
f 9//15 10//15 20//15 19//15
vn 0 0 -1
f 4//16 14//16 15//16 5//16
vn -1 0 0
f 5//17 1//17 6//17 10//17
vn 1 0 0
f 15//18 20//18 16//18 11//18
vn 0 0 1
f 10//19 6//19 16//19 20//19
vn 0 0 -1
f 5//20 15//20 11//20 1//20
